<mxfile host="app.diagrams.net" agent="Mozilla/5.0 (Macintosh; Intel Mac OS X 10_15_7) AppleWebKit/537.36 (KHTML, like Gecko) Chrome/127.0.0.0 Safari/537.36" version="24.7.7">
  <diagram name="페이지-1" id="ZMWF_jh5PjNdTkbyq6kR">
    <mxGraphModel dx="1621" dy="739" grid="1" gridSize="10" guides="1" tooltips="1" connect="1" arrows="1" fold="1" page="1" pageScale="1" pageWidth="827" pageHeight="1169" math="0" shadow="0">
      <root>
        <mxCell id="0" />
        <mxCell id="1" parent="0" />
        <mxCell id="B7UjVybQpsrSIDHmtoby-45" style="edgeStyle=none;rounded=0;orthogonalLoop=1;jettySize=auto;html=1;exitX=0.155;exitY=0.995;exitDx=0;exitDy=0;endArrow=ERzeroToMany;endFill=0;startArrow=ERone;startFill=0;exitPerimeter=0;" edge="1" parent="1" source="B7UjVybQpsrSIDHmtoby-1" target="B7UjVybQpsrSIDHmtoby-29">
          <mxGeometry relative="1" as="geometry" />
        </mxCell>
        <mxCell id="B7UjVybQpsrSIDHmtoby-57" style="edgeStyle=none;rounded=0;orthogonalLoop=1;jettySize=auto;html=1;exitX=1;exitY=0.5;exitDx=0;exitDy=0;endArrow=ERzeroToMany;endFill=0;startArrow=ERone;startFill=0;" edge="1" parent="1" source="B7UjVybQpsrSIDHmtoby-1" target="B7UjVybQpsrSIDHmtoby-56">
          <mxGeometry relative="1" as="geometry" />
        </mxCell>
        <mxCell id="B7UjVybQpsrSIDHmtoby-1" value="&lt;font style=&quot;font-size: 25px;&quot;&gt;회원&lt;/font&gt;" style="whiteSpace=wrap;html=1;aspect=fixed;" vertex="1" parent="1">
          <mxGeometry x="-480" y="117.5" width="110" height="110" as="geometry" />
        </mxCell>
        <mxCell id="B7UjVybQpsrSIDHmtoby-7" style="rounded=0;orthogonalLoop=1;jettySize=auto;html=1;exitX=1;exitY=0.5;exitDx=0;exitDy=0;endArrow=none;endFill=0;" edge="1" parent="1" source="B7UjVybQpsrSIDHmtoby-2" target="B7UjVybQpsrSIDHmtoby-1">
          <mxGeometry relative="1" as="geometry" />
        </mxCell>
        <mxCell id="B7UjVybQpsrSIDHmtoby-2" value="&lt;u&gt;id&lt;/u&gt;" style="ellipse;whiteSpace=wrap;html=1;aspect=fixed;" vertex="1" parent="1">
          <mxGeometry x="-570" y="150" width="45" height="45" as="geometry" />
        </mxCell>
        <mxCell id="B7UjVybQpsrSIDHmtoby-14" style="edgeStyle=none;rounded=0;orthogonalLoop=1;jettySize=auto;html=1;exitX=1;exitY=1;exitDx=0;exitDy=0;endArrow=none;endFill=0;" edge="1" parent="1" source="B7UjVybQpsrSIDHmtoby-13" target="B7UjVybQpsrSIDHmtoby-1">
          <mxGeometry relative="1" as="geometry" />
        </mxCell>
        <mxCell id="B7UjVybQpsrSIDHmtoby-13" value="pw" style="ellipse;whiteSpace=wrap;html=1;aspect=fixed;" vertex="1" parent="1">
          <mxGeometry x="-525" y="30" width="45" height="45" as="geometry" />
        </mxCell>
        <mxCell id="B7UjVybQpsrSIDHmtoby-16" style="edgeStyle=none;rounded=0;orthogonalLoop=1;jettySize=auto;html=1;exitX=0.5;exitY=1;exitDx=0;exitDy=0;endArrow=none;endFill=0;" edge="1" parent="1" source="B7UjVybQpsrSIDHmtoby-15" target="B7UjVybQpsrSIDHmtoby-1">
          <mxGeometry relative="1" as="geometry" />
        </mxCell>
        <mxCell id="B7UjVybQpsrSIDHmtoby-15" value="name" style="ellipse;whiteSpace=wrap;html=1;aspect=fixed;" vertex="1" parent="1">
          <mxGeometry x="-436" y="20" width="45" height="45" as="geometry" />
        </mxCell>
        <mxCell id="B7UjVybQpsrSIDHmtoby-46" style="edgeStyle=none;rounded=0;orthogonalLoop=1;jettySize=auto;html=1;exitX=1;exitY=1;exitDx=0;exitDy=0;entryX=0;entryY=0.25;entryDx=0;entryDy=0;endArrow=none;endFill=0;" edge="1" parent="1" source="B7UjVybQpsrSIDHmtoby-17" target="B7UjVybQpsrSIDHmtoby-1">
          <mxGeometry relative="1" as="geometry" />
        </mxCell>
        <mxCell id="B7UjVybQpsrSIDHmtoby-17" value="email" style="ellipse;whiteSpace=wrap;html=1;aspect=fixed;" vertex="1" parent="1">
          <mxGeometry x="-580" y="72.5" width="45" height="45" as="geometry" />
        </mxCell>
        <mxCell id="B7UjVybQpsrSIDHmtoby-43" style="edgeStyle=none;rounded=0;orthogonalLoop=1;jettySize=auto;html=1;exitX=0;exitY=0.5;exitDx=0;exitDy=0;entryX=1;entryY=0.5;entryDx=0;entryDy=0;endArrow=ERzeroToMany;endFill=0;startArrow=ERone;startFill=0;" edge="1" parent="1" source="B7UjVybQpsrSIDHmtoby-19" target="B7UjVybQpsrSIDHmtoby-29">
          <mxGeometry relative="1" as="geometry" />
        </mxCell>
        <mxCell id="B7UjVybQpsrSIDHmtoby-19" value="&lt;font style=&quot;font-size: 25px;&quot;&gt;게시글&lt;/font&gt;" style="whiteSpace=wrap;html=1;aspect=fixed;" vertex="1" parent="1">
          <mxGeometry x="-250" y="397.5" width="110" height="110" as="geometry" />
        </mxCell>
        <mxCell id="B7UjVybQpsrSIDHmtoby-20" style="rounded=0;orthogonalLoop=1;jettySize=auto;html=1;endArrow=none;endFill=0;" edge="1" parent="1" source="B7UjVybQpsrSIDHmtoby-21" target="B7UjVybQpsrSIDHmtoby-19">
          <mxGeometry relative="1" as="geometry" />
        </mxCell>
        <mxCell id="B7UjVybQpsrSIDHmtoby-21" value="content" style="ellipse;whiteSpace=wrap;html=1;aspect=fixed;" vertex="1" parent="1">
          <mxGeometry x="-217.5" y="562" width="45" height="45" as="geometry" />
        </mxCell>
        <mxCell id="B7UjVybQpsrSIDHmtoby-22" style="edgeStyle=none;rounded=0;orthogonalLoop=1;jettySize=auto;html=1;exitX=0.667;exitY=0.956;exitDx=0;exitDy=0;endArrow=none;endFill=0;exitPerimeter=0;" edge="1" parent="1" source="B7UjVybQpsrSIDHmtoby-23" target="B7UjVybQpsrSIDHmtoby-19">
          <mxGeometry relative="1" as="geometry" />
        </mxCell>
        <mxCell id="B7UjVybQpsrSIDHmtoby-23" value="&lt;u&gt;bno&lt;/u&gt;" style="ellipse;whiteSpace=wrap;html=1;aspect=fixed;" vertex="1" parent="1">
          <mxGeometry x="-230" y="270" width="45" height="45" as="geometry" />
        </mxCell>
        <mxCell id="B7UjVybQpsrSIDHmtoby-24" style="edgeStyle=none;rounded=0;orthogonalLoop=1;jettySize=auto;html=1;exitX=0.5;exitY=1;exitDx=0;exitDy=0;endArrow=none;endFill=0;" edge="1" parent="1" source="B7UjVybQpsrSIDHmtoby-25" target="B7UjVybQpsrSIDHmtoby-19">
          <mxGeometry relative="1" as="geometry" />
        </mxCell>
        <mxCell id="B7UjVybQpsrSIDHmtoby-25" value="writer" style="ellipse;whiteSpace=wrap;html=1;aspect=fixed;" vertex="1" parent="1">
          <mxGeometry x="-152" y="310" width="45" height="45" as="geometry" />
        </mxCell>
        <mxCell id="B7UjVybQpsrSIDHmtoby-26" style="edgeStyle=none;rounded=0;orthogonalLoop=1;jettySize=auto;html=1;exitX=0;exitY=0.5;exitDx=0;exitDy=0;entryX=1;entryY=0.5;entryDx=0;entryDy=0;endArrow=none;endFill=0;" edge="1" parent="1" source="B7UjVybQpsrSIDHmtoby-27" target="B7UjVybQpsrSIDHmtoby-19">
          <mxGeometry relative="1" as="geometry" />
        </mxCell>
        <mxCell id="B7UjVybQpsrSIDHmtoby-27" value="title" style="ellipse;whiteSpace=wrap;html=1;aspect=fixed;" vertex="1" parent="1">
          <mxGeometry x="-92" y="430" width="45" height="45" as="geometry" />
        </mxCell>
        <mxCell id="B7UjVybQpsrSIDHmtoby-28" style="edgeStyle=none;rounded=0;orthogonalLoop=1;jettySize=auto;html=1;exitX=1;exitY=0.5;exitDx=0;exitDy=0;" edge="1" parent="1" source="B7UjVybQpsrSIDHmtoby-21" target="B7UjVybQpsrSIDHmtoby-21">
          <mxGeometry relative="1" as="geometry" />
        </mxCell>
        <mxCell id="B7UjVybQpsrSIDHmtoby-29" value="&lt;span style=&quot;font-size: 25px;&quot;&gt;댓글&lt;/span&gt;" style="whiteSpace=wrap;html=1;aspect=fixed;" vertex="1" parent="1">
          <mxGeometry x="-668" y="397.5" width="110" height="110" as="geometry" />
        </mxCell>
        <mxCell id="B7UjVybQpsrSIDHmtoby-30" style="rounded=0;orthogonalLoop=1;jettySize=auto;html=1;exitX=1;exitY=0.5;exitDx=0;exitDy=0;endArrow=none;endFill=0;" edge="1" parent="1" source="B7UjVybQpsrSIDHmtoby-31" target="B7UjVybQpsrSIDHmtoby-29">
          <mxGeometry relative="1" as="geometry" />
        </mxCell>
        <mxCell id="B7UjVybQpsrSIDHmtoby-31" value="writer" style="ellipse;whiteSpace=wrap;html=1;aspect=fixed;" vertex="1" parent="1">
          <mxGeometry x="-761" y="435" width="45" height="45" as="geometry" />
        </mxCell>
        <mxCell id="B7UjVybQpsrSIDHmtoby-32" style="edgeStyle=none;rounded=0;orthogonalLoop=1;jettySize=auto;html=1;exitX=1;exitY=1;exitDx=0;exitDy=0;endArrow=none;endFill=0;" edge="1" parent="1" source="B7UjVybQpsrSIDHmtoby-33" target="B7UjVybQpsrSIDHmtoby-29">
          <mxGeometry relative="1" as="geometry" />
        </mxCell>
        <mxCell id="B7UjVybQpsrSIDHmtoby-33" value="&lt;u&gt;rno&lt;/u&gt;" style="ellipse;whiteSpace=wrap;html=1;aspect=fixed;" vertex="1" parent="1">
          <mxGeometry x="-716" y="315" width="45" height="45" as="geometry" />
        </mxCell>
        <mxCell id="B7UjVybQpsrSIDHmtoby-34" style="edgeStyle=none;rounded=0;orthogonalLoop=1;jettySize=auto;html=1;exitX=0.5;exitY=1;exitDx=0;exitDy=0;endArrow=none;endFill=0;" edge="1" parent="1" source="B7UjVybQpsrSIDHmtoby-35" target="B7UjVybQpsrSIDHmtoby-29">
          <mxGeometry relative="1" as="geometry" />
        </mxCell>
        <mxCell id="B7UjVybQpsrSIDHmtoby-35" value="content" style="ellipse;whiteSpace=wrap;html=1;aspect=fixed;" vertex="1" parent="1">
          <mxGeometry x="-720" y="562" width="45" height="45" as="geometry" />
        </mxCell>
        <mxCell id="B7UjVybQpsrSIDHmtoby-38" style="edgeStyle=none;rounded=0;orthogonalLoop=1;jettySize=auto;html=1;exitX=0.5;exitY=0;exitDx=0;exitDy=0;entryX=0.75;entryY=1;entryDx=0;entryDy=0;endArrow=none;endFill=0;" edge="1" parent="1" source="B7UjVybQpsrSIDHmtoby-37" target="B7UjVybQpsrSIDHmtoby-29">
          <mxGeometry relative="1" as="geometry" />
        </mxCell>
        <mxCell id="B7UjVybQpsrSIDHmtoby-37" value="email" style="ellipse;whiteSpace=wrap;html=1;aspect=fixed;" vertex="1" parent="1">
          <mxGeometry x="-606" y="580" width="45" height="45" as="geometry" />
        </mxCell>
        <mxCell id="B7UjVybQpsrSIDHmtoby-39" style="edgeStyle=none;rounded=0;orthogonalLoop=1;jettySize=auto;html=1;exitX=0;exitY=0;exitDx=0;exitDy=0;entryX=0.891;entryY=0.968;entryDx=0;entryDy=0;entryPerimeter=0;endArrow=ERone;endFill=0;startArrow=ERzeroToMany;startFill=0;" edge="1" parent="1" source="B7UjVybQpsrSIDHmtoby-19" target="B7UjVybQpsrSIDHmtoby-1">
          <mxGeometry relative="1" as="geometry" />
        </mxCell>
        <mxCell id="B7UjVybQpsrSIDHmtoby-40" value="쓰다" style="rhombus;whiteSpace=wrap;html=1;" vertex="1" parent="1">
          <mxGeometry x="-370" y="280" width="80" height="50" as="geometry" />
        </mxCell>
        <mxCell id="B7UjVybQpsrSIDHmtoby-44" value="포함" style="rhombus;whiteSpace=wrap;html=1;" vertex="1" parent="1">
          <mxGeometry x="-450" y="432.5" width="80" height="50" as="geometry" />
        </mxCell>
        <mxCell id="B7UjVybQpsrSIDHmtoby-47" value="&lt;font style=&quot;font-size: 25px;&quot;&gt;강의&lt;/font&gt;" style="whiteSpace=wrap;html=1;aspect=fixed;" vertex="1" parent="1">
          <mxGeometry x="-47" y="122.5" width="110" height="110" as="geometry" />
        </mxCell>
        <mxCell id="B7UjVybQpsrSIDHmtoby-48" value="&lt;u&gt;lec_no&lt;/u&gt;" style="ellipse;whiteSpace=wrap;html=1;aspect=fixed;" vertex="1" parent="1">
          <mxGeometry x="-24" y="25" width="45" height="45" as="geometry" />
        </mxCell>
        <mxCell id="B7UjVybQpsrSIDHmtoby-49" style="edgeStyle=none;rounded=0;orthogonalLoop=1;jettySize=auto;html=1;exitX=0.5;exitY=1;exitDx=0;exitDy=0;entryX=0.418;entryY=0.014;entryDx=0;entryDy=0;entryPerimeter=0;endArrow=none;endFill=0;" edge="1" parent="1" source="B7UjVybQpsrSIDHmtoby-48" target="B7UjVybQpsrSIDHmtoby-47">
          <mxGeometry relative="1" as="geometry" />
        </mxCell>
        <mxCell id="B7UjVybQpsrSIDHmtoby-50" value="&lt;u&gt;title&lt;/u&gt;" style="ellipse;whiteSpace=wrap;html=1;aspect=fixed;" vertex="1" parent="1">
          <mxGeometry x="113" y="145" width="45" height="45" as="geometry" />
        </mxCell>
        <mxCell id="B7UjVybQpsrSIDHmtoby-51" style="edgeStyle=none;rounded=0;orthogonalLoop=1;jettySize=auto;html=1;exitX=0;exitY=0.5;exitDx=0;exitDy=0;entryX=0.973;entryY=0.423;entryDx=0;entryDy=0;entryPerimeter=0;endArrow=none;endFill=0;" edge="1" parent="1" source="B7UjVybQpsrSIDHmtoby-50" target="B7UjVybQpsrSIDHmtoby-47">
          <mxGeometry relative="1" as="geometry" />
        </mxCell>
        <mxCell id="B7UjVybQpsrSIDHmtoby-54" style="edgeStyle=none;rounded=0;orthogonalLoop=1;jettySize=auto;html=1;exitX=0;exitY=0;exitDx=0;exitDy=0;entryX=1;entryY=1;entryDx=0;entryDy=0;endArrow=none;endFill=0;" edge="1" parent="1" source="B7UjVybQpsrSIDHmtoby-52" target="B7UjVybQpsrSIDHmtoby-47">
          <mxGeometry relative="1" as="geometry" />
        </mxCell>
        <mxCell id="B7UjVybQpsrSIDHmtoby-52" value="&lt;u&gt;content&lt;/u&gt;" style="ellipse;whiteSpace=wrap;html=1;aspect=fixed;" vertex="1" parent="1">
          <mxGeometry x="93" y="265" width="45" height="45" as="geometry" />
        </mxCell>
        <mxCell id="B7UjVybQpsrSIDHmtoby-56" value="&lt;span style=&quot;font-size: 25px;&quot;&gt;수강&lt;/span&gt;&lt;div&gt;&lt;span style=&quot;font-size: 25px;&quot;&gt;신청&lt;/span&gt;&lt;/div&gt;" style="whiteSpace=wrap;html=1;aspect=fixed;" vertex="1" parent="1">
          <mxGeometry x="-250" y="117.5" width="110" height="110" as="geometry" />
        </mxCell>
        <mxCell id="B7UjVybQpsrSIDHmtoby-58" style="edgeStyle=none;rounded=0;orthogonalLoop=1;jettySize=auto;html=1;exitX=1;exitY=0.5;exitDx=0;exitDy=0;entryX=0.018;entryY=0.45;entryDx=0;entryDy=0;entryPerimeter=0;endArrow=ERone;endFill=0;startArrow=ERzeroToMany;startFill=0;" edge="1" parent="1" source="B7UjVybQpsrSIDHmtoby-56" target="B7UjVybQpsrSIDHmtoby-47">
          <mxGeometry relative="1" as="geometry" />
        </mxCell>
        <mxCell id="B7UjVybQpsrSIDHmtoby-60" style="edgeStyle=none;rounded=0;orthogonalLoop=1;jettySize=auto;html=1;exitX=0.5;exitY=1;exitDx=0;exitDy=0;entryX=0.5;entryY=0;entryDx=0;entryDy=0;endArrow=none;endFill=0;" edge="1" parent="1" source="B7UjVybQpsrSIDHmtoby-59" target="B7UjVybQpsrSIDHmtoby-56">
          <mxGeometry relative="1" as="geometry" />
        </mxCell>
        <mxCell id="B7UjVybQpsrSIDHmtoby-59" value="&lt;u&gt;class_no&lt;/u&gt;" style="ellipse;whiteSpace=wrap;html=1;aspect=fixed;" vertex="1" parent="1">
          <mxGeometry x="-217.5" y="20" width="45" height="45" as="geometry" />
        </mxCell>
        <mxCell id="B7UjVybQpsrSIDHmtoby-61" value="id" style="ellipse;whiteSpace=wrap;html=1;aspect=fixed;" vertex="1" parent="1">
          <mxGeometry x="-310" y="50" width="45" height="45" as="geometry" />
        </mxCell>
        <mxCell id="B7UjVybQpsrSIDHmtoby-62" style="edgeStyle=none;rounded=0;orthogonalLoop=1;jettySize=auto;html=1;exitX=1;exitY=1;exitDx=0;exitDy=0;entryX=0.082;entryY=0.023;entryDx=0;entryDy=0;entryPerimeter=0;endArrow=none;endFill=0;" edge="1" parent="1" source="B7UjVybQpsrSIDHmtoby-61" target="B7UjVybQpsrSIDHmtoby-56">
          <mxGeometry relative="1" as="geometry" />
        </mxCell>
        <mxCell id="B7UjVybQpsrSIDHmtoby-64" style="edgeStyle=none;rounded=0;orthogonalLoop=1;jettySize=auto;html=1;exitX=0;exitY=1;exitDx=0;exitDy=0;endArrow=none;endFill=0;" edge="1" parent="1" source="B7UjVybQpsrSIDHmtoby-63" target="B7UjVybQpsrSIDHmtoby-56">
          <mxGeometry relative="1" as="geometry" />
        </mxCell>
        <mxCell id="B7UjVybQpsrSIDHmtoby-63" value="lec_no" style="ellipse;whiteSpace=wrap;html=1;aspect=fixed;" vertex="1" parent="1">
          <mxGeometry x="-137" y="50" width="45" height="45" as="geometry" />
        </mxCell>
        <mxCell id="B7UjVybQpsrSIDHmtoby-66" style="edgeStyle=none;rounded=0;orthogonalLoop=1;jettySize=auto;html=1;exitX=0.5;exitY=1;exitDx=0;exitDy=0;endArrow=none;endFill=0;" edge="1" parent="1" source="B7UjVybQpsrSIDHmtoby-65" target="B7UjVybQpsrSIDHmtoby-29">
          <mxGeometry relative="1" as="geometry" />
        </mxCell>
        <mxCell id="B7UjVybQpsrSIDHmtoby-65" value="bno" style="ellipse;whiteSpace=wrap;html=1;aspect=fixed;" vertex="1" parent="1">
          <mxGeometry x="-635.5" y="285" width="45" height="45" as="geometry" />
        </mxCell>
      </root>
    </mxGraphModel>
  </diagram>
</mxfile>
